<svg width="624" height="528" viewBox="0 0 624 528" fill="none" xmlns="http://www.w3.org/2000/svg">
<g clip-path="url(#clip0_633_3)">
<path d="M443.46 160.08C470.37 144.44 488.01 114.59 486.08 80.8C483.61 37.65 448.58 2.61999 405.43 0.149994C371.64 -1.79001 341.79 15.85 326.15 42.77C324.17 46.17 319.26 46.03 317.28 42.64C302.4 17.14 274.76 0 243.11 0C211.46 0 183.83 17.14 168.95 42.64C166.97 46.03 162.06 46.17 160.08 42.77C144.44 15.85 114.59 -1.79001 80.7899 0.149994C37.6499 2.61999 2.61994 37.65 0.149945 80.8C-1.78006 114.59 15.8499 144.43 42.7599 160.08C46.0999 162.02 46.0999 166.94 42.7599 168.88C15.8499 184.52 -1.78006 214.36 0.149945 248.15C2.58994 290.89 36.9999 325.77 79.7099 328.74C129.89 332.22 171.68 292.55 171.68 243.12C171.68 211.46 154.53 183.82 129.03 168.94C125.58 166.93 125.57 162.03 129.02 160.02C141.84 152.54 152.54 141.84 160.02 129.02C162.03 125.57 166.93 125.58 168.94 129.03C183.82 154.53 211.46 171.68 243.11 171.68C274.77 171.68 302.41 154.53 317.29 129.03C319.3 125.58 324.2 125.57 326.21 129.02C333.69 141.84 344.38 152.53 357.2 160.01C360.59 161.99 360.72 166.9 357.32 168.87C330.41 184.51 312.77 214.35 314.7 248.15C317.14 290.89 351.55 325.77 394.26 328.74C444.44 332.22 486.23 292.55 486.23 243.12C486.23 211.46 469.09 183.83 443.59 168.95C440.2 166.97 440.06 162.06 443.46 160.08Z" fill="#D64630"/>
<path d="M572.11 204.91V191.48C572.11 183.5 565.64 177.03 557.67 177.03H557.66C549.69 177.03 543.22 183.5 543.22 191.48V204.91C543.22 218.03 532.58 228.67 519.46 228.67H506.03C498.05 228.67 491.58 235.14 491.58 243.12C491.58 251.09 498.05 257.56 506.03 257.56H519.46C532.58 257.56 543.22 268.2 543.22 281.32V294.75C543.22 302.73 549.69 309.2 557.66 309.2H557.67C565.64 309.2 572.11 302.73 572.11 294.75V281.32C572.11 268.2 582.75 257.56 595.87 257.56H609.3C617.28 257.56 623.75 251.09 623.75 243.12C623.75 235.14 617.28 228.67 609.3 228.67H595.87C582.75 228.67 572.11 218.03 572.11 204.91Z" fill="white"/>
<path d="M0 400.53C0 396.744 0.676665 393.44 2.03 390.62C3.38333 387.8 5.24001 385.424 7.60001 383.49C9.95334 381.564 12.7333 380.117 15.94 379.15C19.1467 378.184 22.64 377.7 26.42 377.7C31.0533 377.7 35.1867 378.474 38.82 380.02C42.4533 381.567 45.39 383.727 47.63 386.5C49.87 383.727 52.7667 381.567 56.32 380.02C59.8733 378.474 63.9667 377.7 68.6 377.7C72.3067 377.7 75.7633 378.184 78.97 379.15C82.1767 380.117 84.96 381.564 87.32 383.49C89.6733 385.424 91.5233 387.8 92.87 390.62C94.2233 393.44 94.9 396.744 94.9 400.53V438.41H76.25V405.86C76.25 401.914 75.4367 399.094 73.81 397.4C72.19 395.7 69.9133 394.85 66.98 394.85C63.9667 394.85 61.5133 395.854 59.62 397.86C57.7267 399.867 56.78 403.074 56.78 407.48V438.41H38.12V407.48C38.1267 403.074 37.2033 399.867 35.35 397.86C33.49 395.854 31.0533 394.85 28.04 394.85C25.1067 394.85 22.81 395.7 21.15 397.4C19.49 399.094 18.66 401.914 18.66 405.86V438.41H0V400.53Z" fill="white"/>
<path fill-rule="evenodd" clip-rule="evenodd" d="M122.831 416.63C122.984 417.557 123.388 418.464 124.041 419.35C124.694 420.237 125.624 421.07 126.831 421.85C128.024 422.617 129.548 423.234 131.401 423.7C133.254 424.167 135.494 424.4 138.121 424.4C140.128 424.4 142.021 424.224 143.801 423.87C145.574 423.524 147.121 423.157 148.441 422.77C149.748 422.384 150.828 422 151.681 421.62C152.528 421.227 153.031 420.954 153.191 420.8L159.671 433.78C159.051 434.167 158.028 434.707 156.601 435.4C155.174 436.1 153.378 436.797 151.211 437.49C149.051 438.184 146.524 438.78 143.631 439.28C140.731 439.787 137.541 440.04 134.061 440.04C129.734 440.04 125.681 439.344 121.901 437.95C118.114 436.564 114.811 434.537 111.991 431.87C109.171 429.204 106.951 425.937 105.331 422.07C103.711 418.21 102.898 413.81 102.891 408.87C102.898 404.23 103.711 399.98 105.331 396.12C106.951 392.26 109.191 388.977 112.051 386.27C114.911 383.57 118.271 381.467 122.131 379.96C125.998 378.454 130.171 377.7 134.651 377.7C138.818 377.7 142.564 378.26 145.891 379.38C149.211 380.5 152.011 382.024 154.291 383.95C156.564 385.884 158.301 388.087 159.501 390.56C160.694 393.034 161.291 395.584 161.291 398.21C161.291 401.07 160.791 403.637 159.791 405.91C158.784 408.19 156.988 410.124 154.401 411.71C151.814 413.29 148.301 414.507 143.861 415.36C139.414 416.207 133.754 416.63 126.881 416.63H122.831ZM121.901 404.58C127.081 404.58 131.098 404.387 133.951 404C136.811 403.62 138.938 403.117 140.331 402.49C141.718 401.877 142.568 401.184 142.881 400.41C143.188 399.637 143.341 398.864 143.341 398.09C143.341 396.47 142.608 395.06 141.141 393.86C139.668 392.667 137.464 392.07 134.531 392.07C132.451 392.07 130.638 392.437 129.091 393.17C127.544 393.904 126.248 394.85 125.201 396.01C124.161 397.164 123.371 398.497 122.831 400.01C122.291 401.51 121.981 403.034 121.901 404.58Z" fill="white"/>
<path d="M166.279 402.61C166.272 398.597 167.042 395.024 168.589 391.89C170.135 388.764 172.262 386.157 174.969 384.07C177.669 381.984 180.795 380.4 184.349 379.32C187.902 378.24 191.729 377.7 195.829 377.7C199.842 377.7 203.645 378.24 207.239 379.32C210.825 380.4 213.952 381.984 216.619 384.07C219.285 386.157 221.392 388.764 222.939 391.89C224.479 395.024 225.249 398.597 225.249 402.61V438.41H206.599V406.9C206.599 402.807 205.672 399.774 203.819 397.8C201.965 395.834 199.302 394.85 195.829 394.85C188.562 394.85 184.929 398.867 184.929 406.9V438.41H166.279V402.61Z" fill="white"/>
<path d="M235.68 370.17C235.68 367.157 236.567 365.03 238.34 363.79C240.12 362.557 242.48 361.94 245.42 361.94C247.5 361.94 249.39 362.19 251.09 362.69C252.79 363.197 253.874 363.527 254.34 363.68V379.32H267.66C271.14 379.32 273.614 380.014 275.08 381.4C276.547 382.794 277.28 384.88 277.28 387.66C277.28 389.674 276.97 391.547 276.35 393.28C275.73 395.02 275.267 396.16 274.96 396.7H254.34V414.89C254.334 416.67 254.604 418.08 255.15 419.12C255.69 420.167 256.367 421 257.18 421.62C257.987 422.234 258.91 422.637 259.95 422.83C260.997 423.024 262.06 423.12 263.14 423.12C265.3 423.12 267.27 422.794 269.05 422.14C270.83 421.48 272.107 420.917 272.88 420.45L280.18 433.2C279.48 433.82 278.474 434.517 277.16 435.29C275.847 436.064 274.264 436.797 272.41 437.49C270.557 438.184 268.47 438.78 266.15 439.28C263.837 439.787 261.403 440.04 258.85 440.04C251.59 440.04 245.913 438.127 241.82 434.3C237.727 430.48 235.68 425.364 235.68 418.95V370.17Z" fill="white"/>
<path fill-rule="evenodd" clip-rule="evenodd" d="M280.18 408.87C280.18 404.39 281.03 400.257 282.73 396.47C284.43 392.684 286.767 389.4 289.74 386.62C292.714 383.84 296.17 381.657 300.11 380.07C304.05 378.49 308.3 377.7 312.86 377.7C317.334 377.7 321.56 378.49 325.54 380.07C329.52 381.657 332.997 383.84 335.97 386.62C338.944 389.4 341.28 392.684 342.98 396.47C344.68 400.257 345.53 404.39 345.53 408.87C345.53 413.35 344.68 417.484 342.98 421.27C341.28 425.05 338.944 428.334 335.97 431.12C332.997 433.9 329.52 436.08 325.54 437.66C321.56 439.247 317.334 440.04 312.86 440.04C308.3 440.04 304.05 439.247 300.11 437.66C296.17 436.08 292.714 433.9 289.74 431.12C286.767 428.334 284.43 425.05 282.73 421.27C281.03 417.484 280.18 413.35 280.18 408.87ZM312.86 423.35C314.787 423.35 316.58 422.984 318.24 422.25C319.9 421.517 321.35 420.514 322.59 419.24C323.824 417.967 324.77 416.44 325.43 414.66C326.084 412.887 326.41 410.957 326.41 408.87C326.41 406.784 326.084 404.85 325.43 403.07C324.77 401.297 323.824 399.774 322.59 398.5C321.35 397.227 319.9 396.22 318.24 395.48C316.58 394.754 314.787 394.387 312.86 394.38C310.847 394.387 309.03 394.754 307.41 395.48C305.784 396.22 304.354 397.227 303.12 398.5C301.88 399.774 300.934 401.297 300.28 403.07C299.62 404.85 299.294 406.784 299.3 408.87C299.294 410.957 299.62 412.887 300.28 414.66C300.934 416.44 301.88 417.967 303.12 419.24C304.354 420.514 305.784 421.517 307.41 422.25C309.03 422.984 310.847 423.35 312.86 423.35Z" fill="white"/>
<path d="M353.631 401.34C353.638 397.554 354.278 394.194 355.551 391.26C356.824 388.32 358.581 385.847 360.821 383.84C363.061 381.827 365.764 380.3 368.931 379.26C372.098 378.22 375.574 377.7 379.361 377.7C383.994 377.7 387.604 378.2 390.191 379.2C392.778 380.207 394.651 381.29 395.811 382.45C396.511 383.224 397.051 384.034 397.431 384.88C397.818 385.734 398.011 386.74 398.011 387.9C398.018 389.054 397.844 390.134 397.491 391.14C397.144 392.14 396.721 393.03 396.221 393.81C395.714 394.577 395.231 395.234 394.771 395.78C394.304 396.314 393.958 396.697 393.731 396.93C392.418 396.317 390.834 395.737 388.981 395.19C387.121 394.65 385.074 394.38 382.841 394.38C379.901 394.387 377.408 395.237 375.361 396.93C373.314 398.63 372.291 401.45 372.291 405.39V438.41H353.631V401.34Z" fill="white"/>
<path fill-rule="evenodd" clip-rule="evenodd" d="M418.41 416.63C418.563 417.557 418.97 418.464 419.63 419.35C420.283 420.237 421.21 421.07 422.41 421.85C423.603 422.617 425.127 423.234 426.98 423.7C428.833 424.167 431.077 424.4 433.71 424.4C435.71 424.4 437.6 424.224 439.38 423.87C441.16 423.524 442.707 423.157 444.02 422.77C445.333 422.384 446.413 422 447.26 421.62C448.107 421.227 448.61 420.954 448.77 420.8L455.26 433.78C454.64 434.167 453.617 434.707 452.19 435.4C450.757 436.1 448.96 436.797 446.8 437.49C444.633 438.184 442.103 438.78 439.21 439.28C436.31 439.787 433.123 440.04 429.65 440.04C425.323 440.04 421.267 439.344 417.48 437.95C413.693 436.564 410.39 434.537 407.57 431.87C404.757 429.204 402.537 425.937 400.91 422.07C399.29 418.21 398.48 413.81 398.48 408.87C398.48 404.23 399.29 399.98 400.91 396.12C402.537 392.26 404.78 388.977 407.64 386.27C410.493 383.57 413.853 381.467 417.72 379.96C421.58 378.454 425.75 377.7 430.23 377.7C434.397 377.7 438.143 378.26 441.47 379.38C444.79 380.5 447.59 382.024 449.87 383.95C452.15 385.884 453.89 388.087 455.09 390.56C456.283 393.034 456.88 395.584 456.88 398.21C456.88 401.07 456.377 403.637 455.37 405.91C454.37 408.19 452.577 410.124 449.99 411.71C447.397 413.29 443.88 414.507 439.44 415.36C435 416.207 429.343 416.63 422.47 416.63H418.41ZM417.48 404.58C422.653 404.58 426.67 404.387 429.53 404C432.383 403.62 434.507 403.117 435.9 402.49C437.287 401.877 438.137 401.184 438.45 400.41C438.757 399.637 438.913 398.864 438.92 398.09C438.913 396.47 438.177 395.06 436.71 393.86C435.243 392.667 433.043 392.07 430.11 392.07C428.023 392.07 426.207 392.437 424.66 393.17C423.113 393.904 421.82 394.85 420.78 396.01C419.74 397.164 418.95 398.497 418.41 400.01C417.863 401.51 417.553 403.034 417.48 404.58Z" fill="white"/>
<path d="M466.729 420.34C467.342 420.807 468.366 421.367 469.799 422.02C471.226 422.674 472.926 423.29 474.899 423.87C476.866 424.45 479.106 424.954 481.619 425.38C484.126 425.807 486.769 426.02 489.549 426.02C492.716 426.02 495.112 425.73 496.739 425.15C498.359 424.57 499.169 423.544 499.169 422.07C499.169 420.53 498.492 419.47 497.139 418.89C495.792 418.31 493.689 417.827 490.829 417.44L484.799 416.75C481.786 416.364 478.889 415.804 476.109 415.07C473.329 414.337 470.876 413.254 468.749 411.82C466.622 410.394 464.942 408.56 463.709 406.32C462.476 404.08 461.859 401.26 461.859 397.86C461.859 395.007 462.379 392.36 463.419 389.92C464.466 387.487 466.109 385.364 468.349 383.55C470.589 381.73 473.446 380.3 476.919 379.26C480.399 378.22 484.532 377.7 489.319 377.7C494.186 377.7 498.376 378.01 501.889 378.63C505.409 379.244 508.442 380.207 510.989 381.52C512.456 382.294 513.632 383.24 514.519 384.36C515.412 385.48 515.859 386.854 515.859 388.48C515.859 389.714 515.606 390.814 515.099 391.78C514.599 392.747 514.019 393.577 513.359 394.27C512.706 394.964 512.089 395.504 511.509 395.89C510.929 396.277 510.562 396.507 510.409 396.58C510.176 396.354 509.539 395.93 508.499 395.31C507.452 394.69 506.062 394.09 504.329 393.51C502.589 392.93 500.502 392.41 498.069 391.95C495.636 391.484 492.872 391.254 489.779 391.26C486.306 391.26 483.896 391.664 482.549 392.47C481.189 393.284 480.512 394.347 480.519 395.66C480.519 396.974 481.136 397.9 482.369 398.44C483.602 398.98 485.456 399.444 487.929 399.83L498.479 401.34C501.099 401.727 503.626 402.284 506.059 403.01C508.492 403.75 510.659 404.814 512.559 406.2C514.446 407.594 515.949 409.37 517.069 411.53C518.189 413.697 518.749 416.324 518.749 419.41C518.749 425.904 516.279 430.964 511.339 434.59C506.392 438.224 499.556 440.04 490.829 440.04C486.269 440.04 482.232 439.73 478.719 439.11C475.206 438.49 472.172 437.777 469.619 436.97C467.072 436.157 465.006 435.307 463.419 434.42C461.839 433.534 460.739 432.857 460.119 432.39L466.729 420.34Z" fill="white"/>
<path d="M23.3708 505.08L38.4008 526.77H31.0508L19.1808 509.69L7.40079 526.77H0.0507812L15.0808 505.08L0.650788 484.07H8.00078L19.1808 500.55L30.4508 484.07H37.8008L23.3708 505.08Z" fill="white"/>
<path d="M109.88 471.86L105.69 476.55C101.34 472.03 95.2697 468.96 87.9297 468.96C73.3297 468.96 63.1697 480.14 63.1697 495.43C63.1697 510.72 73.3297 521.81 87.9297 521.81C95.5297 521.81 101.85 518.57 106.21 513.7L110.31 518.57C104.58 524.72 96.9797 527.88 87.9297 527.88C69.6597 527.88 56.6797 514.13 56.6797 495.43C56.6797 476.73 69.6597 462.89 87.9297 462.89C97.0697 462.89 104.16 466.14 109.88 471.86Z" fill="white"/>
<path d="M121.5 489.54C124.4 486.29 128.59 483.22 135.42 483.22C145.66 483.22 151.64 490.48 151.64 501.23V526.77H145.41V501.58C145.41 494.23 140.97 489.19 134.13 489.19C128.41 489.19 124.74 492.36 121.5 496.62V526.77H115.26V461.87H121.5V489.54Z" fill="white"/>
<path d="M168.73 470.24C168.73 472.8 166.76 474.68 164.2 474.68C161.64 474.68 159.76 472.8 159.76 470.24C159.76 467.68 161.64 465.71 164.2 465.71C166.76 465.71 168.73 467.68 168.73 470.24ZM167.28 526.77H161.04V484.07H167.28V526.77Z" fill="white"/>
<path d="M184.179 526.77H177.949V461.87H184.179V526.77Z" fill="white"/>
<path fill-rule="evenodd" clip-rule="evenodd" d="M229.96 505.08V507.64H196.82C197.08 516.69 202.37 522.24 211.77 522.24C218.09 522.24 222.36 519.34 224.66 516.18L229.02 519.85C225 524.8 219.37 527.62 211.77 527.62C198.44 527.62 190.59 518.31 190.59 505.51C190.59 492.69 198.79 483.22 210.74 483.22C223.21 483.22 229.96 492.95 229.96 505.08ZM196.82 502.52H223.81C223.55 494.32 218.77 488.68 210.74 488.68C202.72 488.68 197.25 494.23 196.82 502.52Z" fill="white"/>
</g>
<defs>
<clipPath id="clip0_633_3">
<rect width="624" height="528" fill="white"/>
</clipPath>
</defs>
</svg>
