<svg width="624" height="528" viewBox="0 0 624 528" fill="none" xmlns="http://www.w3.org/2000/svg">
<path d="M443.46 160.08C470.37 144.44 488.01 114.59 486.08 80.8C483.61 37.65 448.58 2.61999 405.43 0.149994C371.64 -1.79001 341.79 15.85 326.15 42.77C324.17 46.17 319.26 46.03 317.28 42.64C302.4 17.14 274.76 0 243.11 0C211.46 0 183.83 17.14 168.95 42.64C166.97 46.03 162.06 46.17 160.08 42.77C144.44 15.85 114.59 -1.79001 80.7899 0.149994C37.6499 2.61999 2.61994 37.65 0.149944 80.8C-1.78006 114.59 15.8499 144.43 42.7599 160.08C46.0999 162.02 46.0999 166.94 42.7599 168.88C15.8499 184.52 -1.78006 214.36 0.149944 248.15C2.58994 290.89 36.9999 325.77 79.7099 328.74C129.89 332.22 171.68 292.55 171.68 243.12C171.68 211.46 154.53 183.82 129.03 168.94C125.58 166.93 125.57 162.03 129.02 160.02C141.84 152.54 152.54 141.84 160.02 129.02C162.03 125.57 166.93 125.58 168.94 129.03C183.82 154.53 211.46 171.68 243.11 171.68C274.77 171.68 302.41 154.53 317.29 129.03C319.3 125.58 324.2 125.57 326.21 129.02C333.69 141.84 344.38 152.53 357.2 160.01C360.59 161.99 360.72 166.9 357.32 168.87C330.41 184.51 312.77 214.35 314.7 248.15C317.14 290.89 351.55 325.77 394.26 328.74C444.44 332.22 486.23 292.55 486.23 243.12C486.23 211.46 469.09 183.83 443.59 168.95C440.2 166.97 440.06 162.06 443.46 160.08Z" fill="#D64630"/>
<path d="M572.11 204.91V191.48C572.11 183.5 565.64 177.03 557.67 177.03H557.66C549.69 177.03 543.22 183.5 543.22 191.48V204.91C543.22 218.03 532.58 228.67 519.46 228.67H506.03C498.05 228.67 491.58 235.14 491.58 243.12C491.58 251.09 498.05 257.56 506.03 257.56H519.46C532.58 257.56 543.22 268.2 543.22 281.32V294.75C543.22 302.73 549.69 309.2 557.66 309.2H557.67C565.64 309.2 572.11 302.73 572.11 294.75V281.32C572.11 268.2 582.75 257.56 595.87 257.56H609.3C617.28 257.56 623.75 251.09 623.75 243.12C623.75 235.14 617.28 228.67 609.3 228.67H595.87C582.75 228.67 572.11 218.03 572.11 204.91Z" fill="#606880"/>
<path d="M0 400.53C0 396.744 0.676665 393.44 2.03 390.62C3.38333 387.8 5.24001 385.424 7.60001 383.49C9.95334 381.564 12.7333 380.117 15.94 379.15C19.1467 378.184 22.64 377.7 26.42 377.7C31.0533 377.7 35.1867 378.474 38.82 380.02C42.4533 381.567 45.39 383.727 47.63 386.5C49.87 383.727 52.7667 381.567 56.32 380.02C59.8733 378.474 63.9667 377.7 68.6 377.7C72.3067 377.7 75.7633 378.184 78.97 379.15C82.1767 380.117 84.96 381.564 87.32 383.49C89.6733 385.424 91.5233 387.8 92.87 390.62C94.2233 393.44 94.9 396.744 94.9 400.53V438.41H76.25V405.86C76.25 401.914 75.4367 399.094 73.81 397.4C72.19 395.7 69.9133 394.85 66.98 394.85C63.9667 394.85 61.5133 395.854 59.62 397.86C57.7267 399.867 56.78 403.074 56.78 407.48V438.41H38.12V407.48C38.1267 403.074 37.2033 399.867 35.35 397.86C33.49 395.854 31.0533 394.85 28.04 394.85C25.1067 394.85 22.81 395.7 21.15 397.4C19.49 399.094 18.66 401.914 18.66 405.86V438.41H0V400.53Z" fill="#606880"/>
<path fill-rule="evenodd" clip-rule="evenodd" d="M122.83 416.63C122.983 417.557 123.387 418.464 124.04 419.35C124.693 420.237 125.623 421.07 126.83 421.85C128.023 422.617 129.547 423.234 131.4 423.7C133.253 424.167 135.493 424.4 138.12 424.4C140.127 424.4 142.02 424.224 143.8 423.87C145.573 423.524 147.12 423.157 148.44 422.77C149.747 422.384 150.827 422 151.68 421.62C152.527 421.227 153.03 420.954 153.19 420.8L159.67 433.78C159.05 434.167 158.027 434.707 156.6 435.4C155.173 436.1 153.377 436.797 151.21 437.49C149.05 438.184 146.523 438.78 143.63 439.28C140.73 439.787 137.54 440.04 134.06 440.04C129.733 440.04 125.68 439.344 121.9 437.95C118.113 436.564 114.81 434.537 111.99 431.87C109.17 429.204 106.95 425.937 105.33 422.07C103.71 418.21 102.897 413.81 102.89 408.87C102.897 404.23 103.71 399.98 105.33 396.12C106.95 392.26 109.19 388.977 112.05 386.27C114.91 383.57 118.27 381.467 122.13 379.96C125.997 378.454 130.17 377.7 134.65 377.7C138.817 377.7 142.563 378.26 145.89 379.38C149.21 380.5 152.01 382.024 154.29 383.95C156.563 385.884 158.3 388.087 159.5 390.56C160.693 393.034 161.29 395.584 161.29 398.21C161.29 401.07 160.79 403.637 159.79 405.91C158.783 408.19 156.987 410.124 154.4 411.71C151.813 413.29 148.3 414.507 143.86 415.36C139.413 416.207 133.753 416.63 126.88 416.63H122.83ZM121.9 404.58C127.08 404.58 131.097 404.387 133.95 404C136.81 403.62 138.937 403.117 140.33 402.49C141.717 401.877 142.567 401.184 142.88 400.41C143.187 399.637 143.34 398.864 143.34 398.09C143.34 396.47 142.607 395.06 141.14 393.86C139.667 392.667 137.463 392.07 134.53 392.07C132.45 392.07 130.637 392.437 129.09 393.17C127.543 393.904 126.247 394.85 125.2 396.01C124.16 397.164 123.37 398.497 122.83 400.01C122.29 401.51 121.98 403.034 121.9 404.58Z" fill="#606880"/>
<path d="M166.28 402.61C166.273 398.597 167.043 395.024 168.59 391.89C170.136 388.764 172.263 386.157 174.97 384.07C177.67 381.984 180.796 380.4 184.35 379.32C187.903 378.24 191.73 377.7 195.83 377.7C199.843 377.7 203.646 378.24 207.24 379.32C210.826 380.4 213.953 381.984 216.62 384.07C219.286 386.157 221.393 388.764 222.94 391.89C224.48 395.024 225.25 398.597 225.25 402.61V438.41H206.6V406.9C206.6 402.807 205.673 399.774 203.82 397.8C201.966 395.834 199.303 394.85 195.83 394.85C188.563 394.85 184.93 398.867 184.93 406.9V438.41H166.28V402.61Z" fill="#606880"/>
<path d="M235.68 370.17C235.68 367.157 236.567 365.03 238.34 363.79C240.12 362.557 242.48 361.94 245.42 361.94C247.5 361.94 249.39 362.19 251.09 362.69C252.79 363.197 253.874 363.527 254.34 363.68V379.32H267.66C271.14 379.32 273.614 380.014 275.08 381.4C276.547 382.794 277.28 384.88 277.28 387.66C277.28 389.674 276.97 391.547 276.35 393.28C275.73 395.02 275.267 396.16 274.96 396.7H254.34V414.89C254.334 416.67 254.604 418.08 255.15 419.12C255.69 420.167 256.367 421 257.18 421.62C257.987 422.234 258.91 422.637 259.95 422.83C260.997 423.024 262.06 423.12 263.14 423.12C265.3 423.12 267.27 422.794 269.05 422.14C270.83 421.48 272.107 420.917 272.88 420.45L280.18 433.2C279.48 433.82 278.474 434.517 277.16 435.29C275.847 436.064 274.264 436.797 272.41 437.49C270.557 438.184 268.47 438.78 266.15 439.28C263.837 439.787 261.403 440.04 258.85 440.04C251.59 440.04 245.913 438.127 241.82 434.3C237.727 430.48 235.68 425.364 235.68 418.95V370.17Z" fill="#606880"/>
<path fill-rule="evenodd" clip-rule="evenodd" d="M280.18 408.87C280.18 404.39 281.03 400.257 282.73 396.47C284.43 392.684 286.767 389.4 289.74 386.62C292.714 383.84 296.17 381.657 300.11 380.07C304.05 378.49 308.3 377.7 312.86 377.7C317.334 377.7 321.56 378.49 325.54 380.07C329.52 381.657 332.997 383.84 335.97 386.62C338.944 389.4 341.28 392.684 342.98 396.47C344.68 400.257 345.53 404.39 345.53 408.87C345.53 413.35 344.68 417.484 342.98 421.27C341.28 425.05 338.944 428.334 335.97 431.12C332.997 433.9 329.52 436.08 325.54 437.66C321.56 439.247 317.334 440.04 312.86 440.04C308.3 440.04 304.05 439.247 300.11 437.66C296.17 436.08 292.714 433.9 289.74 431.12C286.767 428.334 284.43 425.05 282.73 421.27C281.03 417.484 280.18 413.35 280.18 408.87ZM312.86 423.35C314.787 423.35 316.58 422.984 318.24 422.25C319.9 421.517 321.35 420.514 322.59 419.24C323.824 417.967 324.77 416.44 325.43 414.66C326.084 412.887 326.41 410.957 326.41 408.87C326.41 406.784 326.084 404.85 325.43 403.07C324.77 401.297 323.824 399.774 322.59 398.5C321.35 397.227 319.9 396.22 318.24 395.48C316.58 394.754 314.787 394.387 312.86 394.38C310.847 394.387 309.03 394.754 307.41 395.48C305.784 396.22 304.354 397.227 303.12 398.5C301.88 399.774 300.934 401.297 300.28 403.07C299.62 404.85 299.294 406.784 299.3 408.87C299.294 410.957 299.62 412.887 300.28 414.66C300.934 416.44 301.88 417.967 303.12 419.24C304.354 420.514 305.784 421.517 307.41 422.25C309.03 422.984 310.847 423.35 312.86 423.35Z" fill="#606880"/>
<path d="M353.63 401.34C353.637 397.554 354.277 394.194 355.55 391.26C356.823 388.32 358.58 385.847 360.82 383.84C363.06 381.827 365.763 380.3 368.93 379.26C372.097 378.22 375.573 377.7 379.36 377.7C383.993 377.7 387.603 378.2 390.19 379.2C392.777 380.207 394.65 381.29 395.81 382.45C396.51 383.224 397.05 384.034 397.43 384.88C397.817 385.734 398.01 386.74 398.01 387.9C398.017 389.054 397.843 390.134 397.49 391.14C397.143 392.14 396.72 393.03 396.22 393.81C395.713 394.577 395.23 395.234 394.77 395.78C394.303 396.314 393.957 396.697 393.73 396.93C392.417 396.317 390.833 395.737 388.98 395.19C387.12 394.65 385.073 394.38 382.84 394.38C379.9 394.387 377.407 395.237 375.36 396.93C373.313 398.63 372.29 401.45 372.29 405.39V438.41H353.63V401.34Z" fill="#606880"/>
<path fill-rule="evenodd" clip-rule="evenodd" d="M418.41 416.63C418.563 417.557 418.97 418.464 419.63 419.35C420.283 420.237 421.21 421.07 422.41 421.85C423.603 422.617 425.127 423.234 426.98 423.7C428.833 424.167 431.077 424.4 433.71 424.4C435.71 424.4 437.6 424.224 439.38 423.87C441.16 423.524 442.707 423.157 444.02 422.77C445.333 422.384 446.413 422 447.26 421.62C448.107 421.227 448.61 420.954 448.77 420.8L455.26 433.78C454.64 434.167 453.617 434.707 452.19 435.4C450.757 436.1 448.96 436.797 446.8 437.49C444.633 438.184 442.103 438.78 439.21 439.28C436.31 439.787 433.123 440.04 429.65 440.04C425.323 440.04 421.267 439.344 417.48 437.95C413.693 436.564 410.39 434.537 407.57 431.87C404.757 429.204 402.537 425.937 400.91 422.07C399.29 418.21 398.48 413.81 398.48 408.87C398.48 404.23 399.29 399.98 400.91 396.12C402.537 392.26 404.78 388.977 407.64 386.27C410.493 383.57 413.853 381.467 417.72 379.96C421.58 378.454 425.75 377.7 430.23 377.7C434.397 377.7 438.143 378.26 441.47 379.38C444.79 380.5 447.59 382.024 449.87 383.95C452.15 385.884 453.89 388.087 455.09 390.56C456.283 393.034 456.88 395.584 456.88 398.21C456.88 401.07 456.377 403.637 455.37 405.91C454.37 408.19 452.577 410.124 449.99 411.71C447.397 413.29 443.88 414.507 439.44 415.36C435 416.207 429.343 416.63 422.47 416.63H418.41ZM417.48 404.58C422.653 404.58 426.67 404.387 429.53 404C432.383 403.62 434.507 403.117 435.9 402.49C437.287 401.877 438.137 401.184 438.45 400.41C438.757 399.637 438.913 398.864 438.92 398.09C438.913 396.47 438.177 395.06 436.71 393.86C435.243 392.667 433.043 392.07 430.11 392.07C428.023 392.07 426.207 392.437 424.66 393.17C423.113 393.904 421.82 394.85 420.78 396.01C419.74 397.164 418.95 398.497 418.41 400.01C417.863 401.51 417.553 403.034 417.48 404.58Z" fill="#606880"/>
<path d="M466.73 420.34C467.343 420.807 468.367 421.367 469.8 422.02C471.227 422.674 472.927 423.29 474.9 423.87C476.867 424.45 479.107 424.954 481.62 425.38C484.127 425.807 486.77 426.02 489.55 426.02C492.717 426.02 495.113 425.73 496.74 425.15C498.36 424.57 499.17 423.544 499.17 422.07C499.17 420.53 498.493 419.47 497.14 418.89C495.793 418.31 493.69 417.827 490.83 417.44L484.8 416.75C481.787 416.364 478.89 415.804 476.11 415.07C473.33 414.337 470.877 413.254 468.75 411.82C466.623 410.394 464.943 408.56 463.71 406.32C462.477 404.08 461.86 401.26 461.86 397.86C461.86 395.007 462.38 392.36 463.42 389.92C464.467 387.487 466.11 385.364 468.35 383.55C470.59 381.73 473.447 380.3 476.92 379.26C480.4 378.22 484.533 377.7 489.32 377.7C494.187 377.7 498.377 378.01 501.89 378.63C505.41 379.244 508.443 380.207 510.99 381.52C512.457 382.294 513.633 383.24 514.52 384.36C515.413 385.48 515.86 386.854 515.86 388.48C515.86 389.714 515.607 390.814 515.1 391.78C514.6 392.747 514.02 393.577 513.36 394.27C512.707 394.964 512.09 395.504 511.51 395.89C510.93 396.277 510.563 396.507 510.41 396.58C510.177 396.354 509.54 395.93 508.5 395.31C507.453 394.69 506.063 394.09 504.33 393.51C502.59 392.93 500.503 392.41 498.07 391.95C495.637 391.484 492.873 391.254 489.78 391.26C486.307 391.26 483.897 391.664 482.55 392.47C481.19 393.284 480.513 394.347 480.52 395.66C480.52 396.974 481.137 397.9 482.37 398.44C483.603 398.98 485.457 399.444 487.93 399.83L498.48 401.34C501.1 401.727 503.627 402.284 506.06 403.01C508.493 403.75 510.66 404.814 512.56 406.2C514.447 407.594 515.95 409.37 517.07 411.53C518.19 413.697 518.75 416.324 518.75 419.41C518.75 425.904 516.28 430.964 511.34 434.59C506.393 438.224 499.557 440.04 490.83 440.04C486.27 440.04 482.233 439.73 478.72 439.11C475.207 438.49 472.173 437.777 469.62 436.97C467.073 436.157 465.007 435.307 463.42 434.42C461.84 433.534 460.74 432.857 460.12 432.39L466.73 420.34Z" fill="#606880"/>
<path d="M23.3698 505.08L38.3998 526.77H31.0498L19.1798 509.69L7.39981 526.77H0.0498047L15.0798 505.08L0.649811 484.07H7.9998L19.1798 500.55L30.4498 484.07H37.7998L23.3698 505.08Z" fill="#606880"/>
<path d="M109.88 471.86L105.69 476.55C101.34 472.03 95.2697 468.96 87.9297 468.96C73.3297 468.96 63.1697 480.14 63.1697 495.43C63.1697 510.72 73.3297 521.81 87.9297 521.81C95.5297 521.81 101.85 518.57 106.21 513.7L110.31 518.57C104.58 524.72 96.9797 527.88 87.9297 527.88C69.6597 527.88 56.6797 514.13 56.6797 495.43C56.6797 476.73 69.6597 462.89 87.9297 462.89C97.0697 462.89 104.16 466.14 109.88 471.86Z" fill="#606880"/>
<path d="M121.5 489.54C124.4 486.29 128.59 483.22 135.42 483.22C145.66 483.22 151.64 490.48 151.64 501.23V526.77H145.41V501.58C145.41 494.23 140.97 489.19 134.13 489.19C128.41 489.19 124.74 492.36 121.5 496.62V526.77H115.26V461.87H121.5V489.54Z" fill="#606880"/>
<path d="M168.73 470.24C168.73 472.8 166.76 474.68 164.2 474.68C161.64 474.68 159.76 472.8 159.76 470.24C159.76 467.68 161.64 465.71 164.2 465.71C166.76 465.71 168.73 467.68 168.73 470.24ZM167.28 526.77H161.04V484.07H167.28V526.77Z" fill="#606880"/>
<path d="M184.18 526.77H177.95V461.87H184.18V526.77Z" fill="#606880"/>
<path fill-rule="evenodd" clip-rule="evenodd" d="M229.96 505.08V507.64H196.82C197.08 516.69 202.37 522.24 211.77 522.24C218.09 522.24 222.36 519.34 224.66 516.18L229.02 519.85C225 524.8 219.37 527.62 211.77 527.62C198.44 527.62 190.59 518.31 190.59 505.51C190.59 492.69 198.79 483.22 210.74 483.22C223.21 483.22 229.96 492.95 229.96 505.08ZM196.82 502.52H223.81C223.55 494.32 218.77 488.68 210.74 488.68C202.72 488.68 197.25 494.23 196.82 502.52Z" fill="#606880"/>
</svg>
